<svg width="420" height="255" viewBox="0 0 420 255" fill="none" xmlns="http://www.w3.org/2000/svg">
<mask id="path-1-inside-1_8_32" fill="white">
<path fill-rule="evenodd" clip-rule="evenodd" d="M224.683 1.88178C225.13 2.00511 225.575 2.13392 226.016 2.26813C226.624 2.36956 227.232 2.48201 227.84 2.60563C255.983 8.32518 274.162 35.7766 268.442 63.9201C267.457 68.7684 265.827 73.3209 263.659 77.5064L341.395 157.715C352.086 151.397 365.064 148.865 378.192 151.533C406.335 157.252 424.514 184.704 418.794 212.847C413.075 240.991 385.623 259.169 357.48 253.449C329.336 247.73 311.158 220.278 316.877 192.135C318.562 183.845 322.132 176.42 327.05 170.215L251.834 92.6066C240.038 102.97 223.703 107.891 207.128 104.522C205.496 104.191 203.898 103.786 202.337 103.313C200.576 103.018 198.812 102.629 197.053 102.144C192.284 100.83 187.853 98.8925 183.826 96.4439L98.4917 168.516C104.064 179.614 105.704 192.734 102.144 205.65C94.5148 233.337 65.8851 249.596 38.1984 241.966C10.5116 234.337 -5.74791 205.707 1.88178 178.02C9.51147 150.333 38.1411 134.074 65.8279 141.704C73.9832 143.951 81.147 148.02 87.0009 153.351L169.569 83.615C160.036 71.1374 156.243 54.5044 160.737 38.1984C168.366 10.5116 196.996 -5.74791 224.683 1.88178Z"/>
</mask>
<path d="M226.016 2.26813L224.562 7.052L224.873 7.14638L225.193 7.19984L226.016 2.26813ZM224.683 1.88178L226.011 -2.93854L226.011 -2.93854L224.683 1.88178ZM227.84 2.60563L228.836 -2.29421L228.836 -2.29421L227.84 2.60563ZM268.442 63.9201L263.542 62.9243V62.9243L268.442 63.9201ZM263.659 77.5064L259.219 75.2071L257.564 78.4023L260.068 80.9862L263.659 77.5064ZM341.395 157.715L337.804 161.195L340.546 164.024L343.938 162.019L341.395 157.715ZM378.192 151.533L377.196 156.433L378.192 151.533ZM418.794 212.847L423.694 213.843L418.794 212.847ZM357.48 253.449L356.484 258.349L357.48 253.449ZM316.877 192.135L321.777 193.131L316.877 192.135ZM327.05 170.215L330.969 173.321L333.693 169.885L330.641 166.736L327.05 170.215ZM251.834 92.6066L255.425 89.1268L252.111 85.7079L248.534 88.8502L251.834 92.6066ZM207.128 104.522L206.132 109.422L206.132 109.422L207.128 104.522ZM202.337 103.313L203.788 98.5278L203.48 98.4346L203.163 98.3815L202.337 103.313ZM197.053 102.144L195.725 106.965L195.725 106.965L197.053 102.144ZM183.826 96.4439L186.423 92.1715L183.348 90.3023L180.599 92.6241L183.826 96.4439ZM98.4917 168.516L95.2655 164.696L92.2554 167.238L94.0234 170.759L98.4917 168.516ZM102.144 205.65L97.3242 204.321L102.144 205.65ZM38.1984 241.966L39.5267 237.146L38.1984 241.966ZM65.8279 141.704L64.4995 146.524H64.4996L65.8279 141.704ZM87.0009 153.351L83.6344 157.048L86.8768 160L90.2271 157.171L87.0009 153.351ZM169.569 83.615L172.795 87.4349L176.432 84.3628L173.542 80.5795L169.569 83.615ZM160.737 38.1984L155.916 36.87L160.737 38.1984ZM227.47 -2.51574C226.987 -2.66265 226.501 -2.80361 226.011 -2.93854L223.354 6.7021C223.76 6.81382 224.162 6.93049 224.562 7.052L227.47 -2.51574ZM228.836 -2.29421C228.17 -2.42946 227.505 -2.55254 226.84 -2.66358L225.193 7.19984C225.743 7.29165 226.293 7.39348 226.844 7.50547L228.836 -2.29421ZM273.342 64.9159C279.611 34.0663 259.685 3.9753 228.836 -2.29421L226.844 7.50546C252.282 12.6751 268.712 37.4869 263.542 62.9243L273.342 64.9159ZM268.099 79.8058C270.477 75.2132 272.263 70.2223 273.342 64.9159L263.542 62.9243C262.65 67.3144 261.176 71.4286 259.219 75.2071L268.099 79.8058ZM260.068 80.9862L337.804 161.195L344.985 154.235L267.249 74.0267L260.068 80.9862ZM343.938 162.019C353.606 156.306 365.327 154.02 377.196 156.433L379.188 146.633C364.8 143.709 350.566 146.487 338.851 153.41L343.938 162.019ZM377.196 156.433C402.634 161.602 419.064 186.414 413.894 211.851L423.694 213.843C429.963 182.993 410.037 152.902 379.188 146.633L377.196 156.433ZM413.894 211.851C408.725 237.289 383.913 253.719 358.475 248.549L356.484 258.349C387.333 264.619 417.424 244.693 423.694 213.843L413.894 211.851ZM358.475 248.549C333.038 243.38 316.608 218.568 321.777 193.131L311.978 191.139C305.708 221.989 325.634 252.08 356.484 258.349L358.475 248.549ZM321.777 193.131C323.302 185.629 326.528 178.924 330.969 173.321L323.132 167.109C317.737 173.916 313.823 182.061 311.978 191.139L321.777 193.131ZM330.641 166.736L255.425 89.1268L248.244 96.0863L323.46 173.695L330.641 166.736ZM206.132 109.422C224.304 113.115 242.214 107.714 255.134 96.3629L248.534 88.8502C237.861 98.2265 223.102 102.666 208.123 99.6224L206.132 109.422ZM200.886 108.098C202.597 108.616 204.347 109.059 206.132 109.422L208.123 99.6224C206.646 99.3221 205.2 98.9559 203.788 98.5278L200.886 108.098ZM195.725 106.965C197.65 107.495 199.58 107.921 201.511 108.244L203.163 98.3815C201.571 98.1147 199.975 97.7633 198.382 97.3242L195.725 106.965ZM181.228 100.716C185.647 103.403 190.505 105.526 195.725 106.965L198.382 97.3242C194.063 96.134 190.059 94.382 186.423 92.1715L181.228 100.716ZM101.718 172.336L187.052 100.264L180.599 92.6241L95.2655 164.696L101.718 172.336ZM106.965 206.978C110.865 192.824 109.066 178.433 102.96 166.272L94.0234 170.759C99.0623 180.795 100.542 192.645 97.3242 204.321L106.965 206.978ZM36.87 246.787C67.219 255.15 98.6015 237.327 106.965 206.978L97.3242 204.321C90.4281 229.346 64.5513 244.042 39.5267 237.146L36.87 246.787ZM-2.93854 176.692C-11.3019 207.041 6.52105 238.423 36.87 246.787L39.5267 237.146C14.5021 230.25 -0.193961 204.373 6.7021 179.349L-2.93854 176.692ZM67.1562 136.883C36.8073 128.52 5.42477 146.343 -2.93854 176.692L6.7021 179.349C13.5982 154.324 39.475 139.628 64.4995 146.524L67.1562 136.883ZM90.3673 149.654C83.9453 143.806 76.0871 139.344 67.1562 136.883L64.4996 146.524C71.8793 148.558 78.3487 152.235 83.6344 157.048L90.3673 149.654ZM166.343 79.7952L83.7746 149.531L90.2271 157.171L172.795 87.4349L166.343 79.7952ZM155.916 36.87C150.99 54.7469 155.154 72.9843 165.596 86.6506L173.542 80.5795C164.917 69.2906 161.496 54.2619 165.557 39.5267L155.916 36.87ZM226.011 -2.93854C195.662 -11.3019 164.28 6.52105 155.916 36.87L165.557 39.5267C172.453 14.5021 198.33 -0.193962 223.354 6.7021L226.011 -2.93854Z" fill="#FF8A00" fill-opacity="0.4" mask="url(#path-1-inside-1_8_32)"/>
</svg>
