<svg width="37" height="40" viewBox="0 0 37 40" fill="none" xmlns="http://www.w3.org/2000/svg">
<path d="M0.706112 15.0047C0.249557 15.4076 3.8147e-05 15.9198 3.8147e-05 16.5241C3.8147e-05 17.7311 1.07951 18.7024 2.44741 18.7024C3.13225 18.7024 3.75514 18.4447 4.23116 18.0247L18.4163 5.21549L32.5589 18.0247C33.0349 18.4447 33.6791 18.7024 34.3427 18.7024C35.7106 18.7024 36.79 17.7311 36.79 16.5241C36.79 15.9198 36.5405 15.4076 36.084 15.0047L20.3239 0.768277C19.7842 0.256097 19.1206 0.0187383 18.395 0C17.6695 0 17.0466 0.256097 16.4874 0.768277L0.706112 15.0047Z" fill="#4AFF00"/>
<line x1="5.22156" y1="18.1853" x2="5.22156" y2="39.59" stroke="#4AFF00" stroke-width="3"/>
<line x1="29.9647" y1="18.1853" x2="29.9647" y2="39.59" stroke="#4AFF00" stroke-width="3"/>
<line x1="3.72156" y1="38.09" x2="28.4647" y2="38.09" stroke="#4AFF00" stroke-width="3"/>
</svg>
