<svg width="73" height="30" viewBox="0 0 73 30" fill="none" xmlns="http://www.w3.org/2000/svg">
<path fill-rule="evenodd" clip-rule="evenodd" d="M10 0C4.47715 0 0 4.47715 0 10V20C0 25.5228 4.47715 30 10 30H35.9032C30.3804 30 25.9032 25.5228 25.9032 20V10C25.9032 4.47715 30.3804 0 35.9032 0H10ZM37.0968 0C42.6196 0 47.0968 4.47715 47.0968 10V20C47.0968 25.5228 42.6196 30 37.0968 30H63C68.5229 30 73 25.5228 73 20V10C73 4.47715 68.5229 0 63 0H37.0968Z" fill="#4AFF00"/>
<ellipse cx="36.8924" cy="15" rx="7.84946" ry="12.75" fill="#FF8A00"/>
</svg>
